<svg width="16" height="17" viewBox="0 0 16 17" fill="none" xmlns="http://www.w3.org/2000/svg">
<path fill-rule="evenodd" clip-rule="evenodd" d="M15.2983 2.65836C15.7545 2.20336 15.7545 1.46369 15.2983 1.00869C14.8433 0.552523 14.1048 0.552523 13.6486 1.00869L7.90398 6.75336L2.15814 1.00869C1.70314 0.552523 0.963476 0.552523 0.508476 1.00869C0.0523096 1.46369 0.0523096 2.20336 0.508476 2.65836L6.25314 8.40419L0.508476 14.1489C0.0523096 14.605 0.0523096 15.3435 0.508476 15.7985C0.963476 16.2547 1.70314 16.2547 2.15814 15.7985L7.90398 10.0539L13.6486 15.7985C14.1048 16.2547 14.8433 16.2547 15.2983 15.7985C15.7545 15.3435 15.7545 14.605 15.2983 14.1489L9.55364 8.40419L15.2983 2.65836Z" fill="#6A6E72"/>
</svg>
